<?xml version="1.0" encoding="utf-8" standalone="no"?>
<!DOCTYPE svg PUBLIC "-//W3C//DTD SVG 1.1//EN"
  "http://www.w3.org/Graphics/SVG/1.1/DTD/svg11.dtd">
<svg xmlns:xlink="http://www.w3.org/1999/xlink" width="256.79952pt" height="206.39952pt" viewBox="0 0 256.79952 206.39952" xmlns="http://www.w3.org/2000/svg" version="1.1">
 <metadata>
  <rdf:RDF xmlns:dc="http://purl.org/dc/elements/1.1/" xmlns:cc="http://creativecommons.org/ns#" xmlns:rdf="http://www.w3.org/1999/02/22-rdf-syntax-ns#">
   <cc:Work>
    <dc:type rdf:resource="http://purl.org/dc/dcmitype/StillImage"/>
    <dc:date>2026-08-01T10:18:49.979962</dc:date>
    <dc:format>image/svg+xml</dc:format>
    <dc:creator>
     <cc:Agent>
      <dc:title>Matplotlib v3.10.0, https://matplotlib.org/</dc:title>
     </cc:Agent>
    </dc:creator>
   </cc:Work>
  </rdf:RDF>
 </metadata>
 <defs>
  <style type="text/css">*{stroke-linejoin: round; stroke-linecap: butt}</style>
 </defs>
 <g id="figure_1">
  <g id="patch_1">
   <path d="M 0 206.39952
L 256.79952 206.39952
L 256.79952 -0
L 0 -0
z
" style="fill: #ffffff"/>
  </g>
  <g id="axes_1">
   <g id="patch_2">
    <path d="M 42.157813 173.682332
L 249.59952 173.682332
L 249.59952 20.038594
L 42.157813 20.038594
z
" style="fill: #ffffff"/>
   </g>
   <g id="matplotlib.axis_1">
    <g id="xtick_1">
     <g id="line2d_1">
      <path d="M 56.691863 173.682332
L 56.691863 20.038594
" clip-path="url(#p4a216fce05)" style="fill: none; stroke: #b0b0b0; stroke-opacity: 0.17; stroke-width: 0.8; stroke-linecap: square"/>
     </g>
     <g id="line2d_2">
      <defs>
       <path id="mfe48419939" d="M 0 0
L 0 3.5
" style="stroke: #000000; stroke-width: 0.8"/>
      </defs>
      <g>
       <use xlink:href="#mfe48419939" x="56.691863" y="173.682332" style="stroke: #000000; stroke-width: 0.8"/>
      </g>
     </g>
     <g id="text_1">
      <text style="font-size: 7.5px; font-family: 'Arial', 'Helvetica', 'DejaVu Sans', sans-serif; text-anchor: middle" x="56.691863" y="186.381161" transform="rotate(-0 56.691863 186.381161)">0.06</text>
     </g>
    </g>
    <g id="xtick_2">
     <g id="line2d_3">
      <path d="M 81.082529 173.682332
L 81.082529 20.038594
" clip-path="url(#p4a216fce05)" style="fill: none; stroke: #b0b0b0; stroke-opacity: 0.17; stroke-width: 0.8; stroke-linecap: square"/>
     </g>
     <g id="line2d_4">
      <g>
       <use xlink:href="#mfe48419939" x="81.082529" y="173.682332" style="stroke: #000000; stroke-width: 0.8"/>
      </g>
     </g>
     <g id="text_2">
      <text style="font-size: 7.5px; font-family: 'Arial', 'Helvetica', 'DejaVu Sans', sans-serif; text-anchor: middle" x="81.082529" y="186.381161" transform="rotate(-0 81.082529 186.381161)">0.08</text>
     </g>
    </g>
    <g id="xtick_3">
     <g id="line2d_5">
      <path d="M 105.473195 173.682332
L 105.473195 20.038594
" clip-path="url(#p4a216fce05)" style="fill: none; stroke: #b0b0b0; stroke-opacity: 0.17; stroke-width: 0.8; stroke-linecap: square"/>
     </g>
     <g id="line2d_6">
      <g>
       <use xlink:href="#mfe48419939" x="105.473195" y="173.682332" style="stroke: #000000; stroke-width: 0.8"/>
      </g>
     </g>
     <g id="text_3">
      <text style="font-size: 7.5px; font-family: 'Arial', 'Helvetica', 'DejaVu Sans', sans-serif; text-anchor: middle" x="105.473195" y="186.381161" transform="rotate(-0 105.473195 186.381161)">0.10</text>
     </g>
    </g>
    <g id="xtick_4">
     <g id="line2d_7">
      <path d="M 129.863862 173.682332
L 129.863862 20.038594
" clip-path="url(#p4a216fce05)" style="fill: none; stroke: #b0b0b0; stroke-opacity: 0.17; stroke-width: 0.8; stroke-linecap: square"/>
     </g>
     <g id="line2d_8">
      <g>
       <use xlink:href="#mfe48419939" x="129.863862" y="173.682332" style="stroke: #000000; stroke-width: 0.8"/>
      </g>
     </g>
     <g id="text_4">
      <text style="font-size: 7.5px; font-family: 'Arial', 'Helvetica', 'DejaVu Sans', sans-serif; text-anchor: middle" x="129.863862" y="186.381161" transform="rotate(-0 129.863862 186.381161)">0.12</text>
     </g>
    </g>
    <g id="xtick_5">
     <g id="line2d_9">
      <path d="M 154.254528 173.682332
L 154.254528 20.038594
" clip-path="url(#p4a216fce05)" style="fill: none; stroke: #b0b0b0; stroke-opacity: 0.17; stroke-width: 0.8; stroke-linecap: square"/>
     </g>
     <g id="line2d_10">
      <g>
       <use xlink:href="#mfe48419939" x="154.254528" y="173.682332" style="stroke: #000000; stroke-width: 0.8"/>
      </g>
     </g>
     <g id="text_5">
      <text style="font-size: 7.5px; font-family: 'Arial', 'Helvetica', 'DejaVu Sans', sans-serif; text-anchor: middle" x="154.254528" y="186.381161" transform="rotate(-0 154.254528 186.381161)">0.14</text>
     </g>
    </g>
    <g id="xtick_6">
     <g id="line2d_11">
      <path d="M 178.645194 173.682332
L 178.645194 20.038594
" clip-path="url(#p4a216fce05)" style="fill: none; stroke: #b0b0b0; stroke-opacity: 0.17; stroke-width: 0.8; stroke-linecap: square"/>
     </g>
     <g id="line2d_12">
      <g>
       <use xlink:href="#mfe48419939" x="178.645194" y="173.682332" style="stroke: #000000; stroke-width: 0.8"/>
      </g>
     </g>
     <g id="text_6">
      <text style="font-size: 7.5px; font-family: 'Arial', 'Helvetica', 'DejaVu Sans', sans-serif; text-anchor: middle" x="178.645194" y="186.381161" transform="rotate(-0 178.645194 186.381161)">0.16</text>
     </g>
    </g>
    <g id="xtick_7">
     <g id="line2d_13">
      <path d="M 203.03586 173.682332
L 203.03586 20.038594
" clip-path="url(#p4a216fce05)" style="fill: none; stroke: #b0b0b0; stroke-opacity: 0.17; stroke-width: 0.8; stroke-linecap: square"/>
     </g>
     <g id="line2d_14">
      <g>
       <use xlink:href="#mfe48419939" x="203.03586" y="173.682332" style="stroke: #000000; stroke-width: 0.8"/>
      </g>
     </g>
     <g id="text_7">
      <text style="font-size: 7.5px; font-family: 'Arial', 'Helvetica', 'DejaVu Sans', sans-serif; text-anchor: middle" x="203.03586" y="186.381161" transform="rotate(-0 203.03586 186.381161)">0.18</text>
     </g>
    </g>
    <g id="xtick_8">
     <g id="line2d_15">
      <path d="M 227.426527 173.682332
L 227.426527 20.038594
" clip-path="url(#p4a216fce05)" style="fill: none; stroke: #b0b0b0; stroke-opacity: 0.17; stroke-width: 0.8; stroke-linecap: square"/>
     </g>
     <g id="line2d_16">
      <g>
       <use xlink:href="#mfe48419939" x="227.426527" y="173.682332" style="stroke: #000000; stroke-width: 0.8"/>
      </g>
     </g>
     <g id="text_8">
      <text style="font-size: 7.5px; font-family: 'Arial', 'Helvetica', 'DejaVu Sans', sans-serif; text-anchor: middle" x="227.426527" y="186.381161" transform="rotate(-0 227.426527 186.381161)">0.20</text>
     </g>
    </g>
    <g id="text_9">
     <text style="font-size: 7.5px; font-family: 'Arial', 'Helvetica', 'DejaVu Sans', sans-serif; text-anchor: middle" x="145.878666" y="197.639754" transform="rotate(-0 145.878666 197.639754)">Mean discounted-value bound</text>
    </g>
   </g>
   <g id="matplotlib.axis_2">
    <g id="ytick_1">
     <g id="line2d_17">
      <path d="M 42.157813 164.15896
L 249.59952 164.15896
" clip-path="url(#p4a216fce05)" style="fill: none; stroke: #b0b0b0; stroke-opacity: 0.17; stroke-width: 0.8; stroke-linecap: square"/>
     </g>
     <g id="line2d_18">
      <defs>
       <path id="mc857718e76" d="M 0 0
L -3.5 0
" style="stroke: #000000; stroke-width: 0.8"/>
      </defs>
      <g>
       <use xlink:href="#mc857718e76" x="42.157813" y="164.15896" style="stroke: #000000; stroke-width: 0.8"/>
      </g>
     </g>
     <g id="text_10">
      <text style="font-size: 7.5px; font-family: 'Arial', 'Helvetica', 'DejaVu Sans', sans-serif; text-anchor: end" x="35.157813" y="167.008374" transform="rotate(-0 35.157813 167.008374)">0.84</text>
     </g>
    </g>
    <g id="ytick_2">
     <g id="line2d_19">
      <path d="M 42.157813 143.842433
L 249.59952 143.842433
" clip-path="url(#p4a216fce05)" style="fill: none; stroke: #b0b0b0; stroke-opacity: 0.17; stroke-width: 0.8; stroke-linecap: square"/>
     </g>
     <g id="line2d_20">
      <g>
       <use xlink:href="#mc857718e76" x="42.157813" y="143.842433" style="stroke: #000000; stroke-width: 0.8"/>
      </g>
     </g>
     <g id="text_11">
      <text style="font-size: 7.5px; font-family: 'Arial', 'Helvetica', 'DejaVu Sans', sans-serif; text-anchor: end" x="35.157813" y="146.691847" transform="rotate(-0 35.157813 146.691847)">0.86</text>
     </g>
    </g>
    <g id="ytick_3">
     <g id="line2d_21">
      <path d="M 42.157813 123.525905
L 249.59952 123.525905
" clip-path="url(#p4a216fce05)" style="fill: none; stroke: #b0b0b0; stroke-opacity: 0.17; stroke-width: 0.8; stroke-linecap: square"/>
     </g>
     <g id="line2d_22">
      <g>
       <use xlink:href="#mc857718e76" x="42.157813" y="123.525905" style="stroke: #000000; stroke-width: 0.8"/>
      </g>
     </g>
     <g id="text_12">
      <text style="font-size: 7.5px; font-family: 'Arial', 'Helvetica', 'DejaVu Sans', sans-serif; text-anchor: end" x="35.157813" y="126.375319" transform="rotate(-0 35.157813 126.375319)">0.88</text>
     </g>
    </g>
    <g id="ytick_4">
     <g id="line2d_23">
      <path d="M 42.157813 103.209378
L 249.59952 103.209378
" clip-path="url(#p4a216fce05)" style="fill: none; stroke: #b0b0b0; stroke-opacity: 0.17; stroke-width: 0.8; stroke-linecap: square"/>
     </g>
     <g id="line2d_24">
      <g>
       <use xlink:href="#mc857718e76" x="42.157813" y="103.209378" style="stroke: #000000; stroke-width: 0.8"/>
      </g>
     </g>
     <g id="text_13">
      <text style="font-size: 7.5px; font-family: 'Arial', 'Helvetica', 'DejaVu Sans', sans-serif; text-anchor: end" x="35.157813" y="106.058792" transform="rotate(-0 35.157813 106.058792)">0.90</text>
     </g>
    </g>
    <g id="ytick_5">
     <g id="line2d_25">
      <path d="M 42.157813 82.892851
L 249.59952 82.892851
" clip-path="url(#p4a216fce05)" style="fill: none; stroke: #b0b0b0; stroke-opacity: 0.17; stroke-width: 0.8; stroke-linecap: square"/>
     </g>
     <g id="line2d_26">
      <g>
       <use xlink:href="#mc857718e76" x="42.157813" y="82.892851" style="stroke: #000000; stroke-width: 0.8"/>
      </g>
     </g>
     <g id="text_14">
      <text style="font-size: 7.5px; font-family: 'Arial', 'Helvetica', 'DejaVu Sans', sans-serif; text-anchor: end" x="35.157813" y="85.742265" transform="rotate(-0 35.157813 85.742265)">0.92</text>
     </g>
    </g>
    <g id="ytick_6">
     <g id="line2d_27">
      <path d="M 42.157813 62.576323
L 249.59952 62.576323
" clip-path="url(#p4a216fce05)" style="fill: none; stroke: #b0b0b0; stroke-opacity: 0.17; stroke-width: 0.8; stroke-linecap: square"/>
     </g>
     <g id="line2d_28">
      <g>
       <use xlink:href="#mc857718e76" x="42.157813" y="62.576323" style="stroke: #000000; stroke-width: 0.8"/>
      </g>
     </g>
     <g id="text_15">
      <text style="font-size: 7.5px; font-family: 'Arial', 'Helvetica', 'DejaVu Sans', sans-serif; text-anchor: end" x="35.157813" y="65.425737" transform="rotate(-0 35.157813 65.425737)">0.94</text>
     </g>
    </g>
    <g id="ytick_7">
     <g id="line2d_29">
      <path d="M 42.157813 42.259796
L 249.59952 42.259796
" clip-path="url(#p4a216fce05)" style="fill: none; stroke: #b0b0b0; stroke-opacity: 0.17; stroke-width: 0.8; stroke-linecap: square"/>
     </g>
     <g id="line2d_30">
      <g>
       <use xlink:href="#mc857718e76" x="42.157813" y="42.259796" style="stroke: #000000; stroke-width: 0.8"/>
      </g>
     </g>
     <g id="text_16">
      <text style="font-size: 7.5px; font-family: 'Arial', 'Helvetica', 'DejaVu Sans', sans-serif; text-anchor: end" x="35.157813" y="45.10921" transform="rotate(-0 35.157813 45.10921)">0.96</text>
     </g>
    </g>
    <g id="ytick_8">
     <g id="line2d_31">
      <path d="M 42.157813 21.943268
L 249.59952 21.943268
" clip-path="url(#p4a216fce05)" style="fill: none; stroke: #b0b0b0; stroke-opacity: 0.17; stroke-width: 0.8; stroke-linecap: square"/>
     </g>
     <g id="line2d_32">
      <g>
       <use xlink:href="#mc857718e76" x="42.157813" y="21.943268" style="stroke: #000000; stroke-width: 0.8"/>
      </g>
     </g>
     <g id="text_17">
      <text style="font-size: 7.5px; font-family: 'Arial', 'Helvetica', 'DejaVu Sans', sans-serif; text-anchor: end" x="35.157813" y="24.792682" transform="rotate(-0 35.157813 24.792682)">0.98</text>
     </g>
    </g>
    <g id="text_18">
     <text style="font-size: 7.5px; font-family: 'Arial', 'Helvetica', 'DejaVu Sans', sans-serif; text-anchor: middle" x="12.898828" y="96.860463" transform="rotate(-90 12.898828 96.860463)">Independent-test coverage</text>
    </g>
   </g>
   <g id="line2d_33">
    <path d="M 56.31058 154.000697
L 66.411956 103.209378
L 103.895947 65.115889
L 180.551118 27.0224
L 183.286405 27.0224
" clip-path="url(#p4a216fce05)" style="fill: none; stroke: #8a8a8a; stroke-width: 1.4; stroke-linecap: square"/>
    <defs>
     <path id="m9df640df53" d="M 0 1.9
C 0.503886 1.9 0.987202 1.699804 1.343503 1.343503
C 1.699804 0.987202 1.9 0.503886 1.9 0
C 1.9 -0.503886 1.699804 -0.987202 1.343503 -1.343503
C 0.987202 -1.699804 0.503886 -1.9 0 -1.9
C -0.503886 -1.9 -0.987202 -1.699804 -1.343503 -1.343503
C -1.699804 -0.987202 -1.9 -0.503886 -1.9 0
C -1.9 0.503886 -1.699804 0.987202 -1.343503 1.343503
C -0.987202 1.699804 -0.503886 1.9 0 1.9
z
" style="stroke: #8a8a8a"/>
    </defs>
    <g clip-path="url(#p4a216fce05)">
     <use xlink:href="#m9df640df53" x="56.31058" y="154.000697" style="fill: #8a8a8a; stroke: #8a8a8a"/>
     <use xlink:href="#m9df640df53" x="66.411956" y="103.209378" style="fill: #8a8a8a; stroke: #8a8a8a"/>
     <use xlink:href="#m9df640df53" x="103.895947" y="65.115889" style="fill: #8a8a8a; stroke: #8a8a8a"/>
     <use xlink:href="#m9df640df53" x="180.551118" y="27.0224" style="fill: #8a8a8a; stroke: #8a8a8a"/>
     <use xlink:href="#m9df640df53" x="183.286405" y="27.0224" style="fill: #8a8a8a; stroke: #8a8a8a"/>
    </g>
   </g>
   <g id="line2d_34">
    <path d="M 51.586981 166.698526
L 62.375876 141.302867
L 89.662268 58.766974
L 98.480069 52.418059
L 111.039372 33.371315
" clip-path="url(#p4a216fce05)" style="fill: none; stroke: #77a6c5; stroke-width: 1.4; stroke-linecap: square"/>
    <defs>
     <path id="mdda2c110ee" d="M 0 1.9
C 0.503886 1.9 0.987202 1.699804 1.343503 1.343503
C 1.699804 0.987202 1.9 0.503886 1.9 0
C 1.9 -0.503886 1.699804 -0.987202 1.343503 -1.343503
C 0.987202 -1.699804 0.503886 -1.9 0 -1.9
C -0.503886 -1.9 -0.987202 -1.699804 -1.343503 -1.343503
C -1.699804 -0.987202 -1.9 -0.503886 -1.9 0
C -1.9 0.503886 -1.699804 0.987202 -1.343503 1.343503
C -0.987202 1.699804 -0.503886 1.9 0 1.9
z
" style="stroke: #77a6c5"/>
    </defs>
    <g clip-path="url(#p4a216fce05)">
     <use xlink:href="#mdda2c110ee" x="51.586981" y="166.698526" style="fill: #77a6c5; stroke: #77a6c5"/>
     <use xlink:href="#mdda2c110ee" x="62.375876" y="141.302867" style="fill: #77a6c5; stroke: #77a6c5"/>
     <use xlink:href="#mdda2c110ee" x="89.662268" y="58.766974" style="fill: #77a6c5; stroke: #77a6c5"/>
     <use xlink:href="#mdda2c110ee" x="98.480069" y="52.418059" style="fill: #77a6c5; stroke: #77a6c5"/>
     <use xlink:href="#mdda2c110ee" x="111.039372" y="33.371315" style="fill: #77a6c5; stroke: #77a6c5"/>
    </g>
   </g>
   <g id="line2d_35">
    <path d="M 175.795414 141.302867
L 207.243889 96.860463
L 231.635904 77.813719
L 240.059881 77.813719
L 240.170351 77.813719
" clip-path="url(#p4a216fce05)" style="fill: none; stroke: #3a5a78; stroke-width: 1.4; stroke-linecap: square"/>
    <defs>
     <path id="mdf678dd107" d="M 0 1.9
C 0.503886 1.9 0.987202 1.699804 1.343503 1.343503
C 1.699804 0.987202 1.9 0.503886 1.9 0
C 1.9 -0.503886 1.699804 -0.987202 1.343503 -1.343503
C 0.987202 -1.699804 0.503886 -1.9 0 -1.9
C -0.503886 -1.9 -0.987202 -1.699804 -1.343503 -1.343503
C -1.699804 -0.987202 -1.9 -0.503886 -1.9 0
C -1.9 0.503886 -1.699804 0.987202 -1.343503 1.343503
C -0.987202 1.699804 -0.503886 1.9 0 1.9
z
" style="stroke: #3a5a78"/>
    </defs>
    <g clip-path="url(#p4a216fce05)">
     <use xlink:href="#mdf678dd107" x="175.795414" y="141.302867" style="fill: #3a5a78; stroke: #3a5a78"/>
     <use xlink:href="#mdf678dd107" x="207.243889" y="96.860463" style="fill: #3a5a78; stroke: #3a5a78"/>
     <use xlink:href="#mdf678dd107" x="231.635904" y="77.813719" style="fill: #3a5a78; stroke: #3a5a78"/>
     <use xlink:href="#mdf678dd107" x="240.059881" y="77.813719" style="fill: #3a5a78; stroke: #3a5a78"/>
     <use xlink:href="#mdf678dd107" x="240.170351" y="77.813719" style="fill: #3a5a78; stroke: #3a5a78"/>
    </g>
   </g>
   <g id="line2d_36">
    <path d="M 175.795414 141.302867
L 207.243889 96.860463
L 231.635904 77.813719
L 240.059881 77.813719
L 240.170351 77.813719
" clip-path="url(#p4a216fce05)" style="fill: none; stroke: #d8843f; stroke-width: 1.4; stroke-linecap: square"/>
    <defs>
     <path id="m32e6684622" d="M 0 1.9
C 0.503886 1.9 0.987202 1.699804 1.343503 1.343503
C 1.699804 0.987202 1.9 0.503886 1.9 0
C 1.9 -0.503886 1.699804 -0.987202 1.343503 -1.343503
C 0.987202 -1.699804 0.503886 -1.9 0 -1.9
C -0.503886 -1.9 -0.987202 -1.699804 -1.343503 -1.343503
C -1.699804 -0.987202 -1.9 -0.503886 -1.9 0
C -1.9 0.503886 -1.699804 0.987202 -1.343503 1.343503
C -0.987202 1.699804 -0.503886 1.9 0 1.9
z
" style="stroke: #d8843f"/>
    </defs>
    <g clip-path="url(#p4a216fce05)">
     <use xlink:href="#m32e6684622" x="175.795414" y="141.302867" style="fill: #d8843f; stroke: #d8843f"/>
     <use xlink:href="#m32e6684622" x="207.243889" y="96.860463" style="fill: #d8843f; stroke: #d8843f"/>
     <use xlink:href="#m32e6684622" x="231.635904" y="77.813719" style="fill: #d8843f; stroke: #d8843f"/>
     <use xlink:href="#m32e6684622" x="240.059881" y="77.813719" style="fill: #d8843f; stroke: #d8843f"/>
     <use xlink:href="#m32e6684622" x="240.170351" y="77.813719" style="fill: #d8843f; stroke: #d8843f"/>
    </g>
   </g>
   <g id="patch_3">
    <path d="M 42.157813 173.682332
L 42.157813 20.038594
" style="fill: none; stroke: #000000; stroke-width: 0.8; stroke-linejoin: miter; stroke-linecap: square"/>
   </g>
   <g id="patch_4">
    <path d="M 42.157813 173.682332
L 249.59952 173.682332
" style="fill: none; stroke: #000000; stroke-width: 0.8; stroke-linejoin: miter; stroke-linecap: square"/>
   </g>
   <g id="text_19">
    <text style="font-size: 9px; font-family: 'Arial', 'Helvetica', 'DejaVu Sans', sans-serif; text-anchor: middle" x="145.878666" y="14.038594" transform="rotate(-0 145.878666 14.038594)">Coverage–conservatism frontier</text>
   </g>
   <g id="legend_1">
    <g id="line2d_37">
     <path d="M 106.197033 82.523041
L 112.497033 82.523041
L 118.797033 82.523041
" style="fill: none; stroke: #8a8a8a; stroke-width: 1.4; stroke-linecap: square"/>
     <g>
      <use xlink:href="#m9df640df53" x="112.497033" y="82.523041" style="fill: #8a8a8a; stroke: #8a8a8a"/>
     </g>
    </g>
    <g id="text_20">
     <text style="font-size: 6.3px; font-family: 'Arial', 'Helvetica', 'DejaVu Sans', sans-serif; text-anchor: start" x="123.837033" y="84.728041" transform="rotate(-0 123.837033 84.728041)">Global max</text>
    </g>
    <g id="line2d_38">
     <path d="M 106.197033 91.77026
L 112.497033 91.77026
L 118.797033 91.77026
" style="fill: none; stroke: #77a6c5; stroke-width: 1.4; stroke-linecap: square"/>
     <g>
      <use xlink:href="#mdda2c110ee" x="112.497033" y="91.77026" style="fill: #77a6c5; stroke: #77a6c5"/>
     </g>
    </g>
    <g id="text_21">
     <text style="font-size: 6.3px; font-family: 'Arial', 'Helvetica', 'DejaVu Sans', sans-serif; text-anchor: start" x="123.837033" y="93.97526" transform="rotate(-0 123.837033 93.97526)">Local recursion</text>
    </g>
    <g id="line2d_39">
     <path d="M 106.197033 101.017479
L 112.497033 101.017479
L 118.797033 101.017479
" style="fill: none; stroke: #3a5a78; stroke-width: 1.4; stroke-linecap: square"/>
     <g>
      <use xlink:href="#mdf678dd107" x="112.497033" y="101.017479" style="fill: #3a5a78; stroke: #3a5a78"/>
     </g>
    </g>
    <g id="text_22">
     <text style="font-size: 6.3px; font-family: 'Arial', 'Helvetica', 'DejaVu Sans', sans-serif; text-anchor: start" x="123.837033" y="103.222479" transform="rotate(-0 123.837033 103.222479)">Adjoint support</text>
    </g>
    <g id="line2d_40">
     <path d="M 106.197033 110.264697
L 112.497033 110.264697
L 118.797033 110.264697
" style="fill: none; stroke: #d8843f; stroke-width: 1.4; stroke-linecap: square"/>
     <g>
      <use xlink:href="#m32e6684622" x="112.497033" y="110.264697" style="fill: #d8843f; stroke: #d8843f"/>
     </g>
    </g>
    <g id="text_23">
     <text style="font-size: 6.3px; font-family: 'Arial', 'Helvetica', 'DejaVu Sans', sans-serif; text-anchor: start" x="123.837033" y="112.469697" transform="rotate(-0 123.837033 112.469697)">Adjoint + curvature</text>
    </g>
   </g>
  </g>
 </g>
 <defs>
  <clipPath id="p4a216fce05">
   <rect x="42.157813" y="20.038594" width="207.441708" height="153.643739"/>
  </clipPath>
 </defs>
</svg>
